# xmcd
#
# Track frame offsets:
#	150
#	9644
#	25553
#	49921
#	62919
#	83183
#	103646
#	115409
#	133893
#	143146
#	163965
#	177414
#	188872
#	203784
#	215301
#	222564
#	228250
#	235087
#	239410
#
# Disc length: 3581 seconds
#
# Revision: 0
# Processed by: cddbd v1.5.2PL0 Copyright (c) Steve Scherf et al.
# Submitted via: dBpowerAMP V4.0
#
DISCID=180dfb13
DTITLE=Travis Edmonson - The Tucson Tapes - Firstg Set
DYEAR=2001
DGENRE=Country
TTITLE0=Walkin' Down the Line
TTITLE1=Everybody's Talkin
TTITLE2=Malaguena Salerosa
TTITLE3=They Call The Wind Mariah
TTITLE4=The Last Thing On My Mind
TTITLE5=Jalisca/Coclula
TTITLE6=Sabras Que Te Quiero
TTITLE7=It Was a Very Good Year
TTITLE8=Moonbabies and Sunflowers
TTITLE9=I'm a Drifter
TTITLE10=Midnight Special
TTITLE11=La Bamba
TTITLE12=Kisses Sweeter than Wine
TTITLE13=Love Is ...
TTITLE14=Empaliza' (En El P:arasal?)
TTITLE15=Hate Me Half as Much as I Love You
TTITLE16=Granada
TTITLE17=Noche de Ronda
TTITLE18=Crescent City Blues
EXTD=
EXTT0=
EXTT1=
EXTT2=
EXTT3=
EXTT4=
EXTT5=
EXTT6=
EXTT7=
EXTT8=
EXTT9=
EXTT10=
EXTT11=
EXTT12=
EXTT13=
EXTT14=
EXTT15=
EXTT16=
EXTT17=
EXTT18=
PLAYORDER=
